#!OML:ASF H:\Terrain\Patient Classification 1\PLAYGROUND\JustinFriday\JustinFriday.ASF
:FULLY-SPECIFIED
:DEGREES
1798
root 12.2766 20.5697 50.9246 -175.275 20.3017 -174.503
lowerback 22.1638 -3.03326 0.954281
upperback 3.09313 -3.31838 -0.380695
thorax -9.06 -1.41663 -0.017161
lowerneck -9.94832 -2.96252 -17.7864
upperneck -24.7203 3.69774 19.0741
head -6.17509 3.70832 9.45722
rclavicle 7.99114e-014 -3.4191e-014
rhumerus 60.5817 9.03779 -55.1976
rradius 86.5686
rwrist -368.114
rhand -29.6679 -17.4977
rfingers 7.12502
rthumb -2.99675 -47.4564
lclavicle 7.99114e-014 -3.4191e-014
lhumerus 22.6699 9.10651 67.0415
lradius 55.1433
lwrist -26.912
lhand -2.48665 -8.21065
lfingers 7.12502
lthumb 23.2066 20.4112
rfemur -44.5366 3.44767 32.1737
rtibia 63.6055
rfoot -32.8267 -13.6336
rtoes 11.9093
lfemur -4.64696 1.11186 -8.8999
ltibia 28.8149
lfoot -163.784 175.014
ltoes 8.79466
1799
root 12.3687 20.6808 50.8919 -175.273 19.8206 -173.97
lowerback 22.3524 -3.14494 1.25956
upperback 3.14869 -3.36124 -0.243902
thorax -9.10942 -1.43817 -0.0225502
lowerneck -9.5621 -2.99893 -17.696
upperneck -25.1898 3.6828 19.0471
head -6.38684 3.70314 9.44786
rclavicle -3.65764e-014 1.43125e-014
rhumerus 62.3461 8.07214 -54.8081
rradius 85.927
rwrist -368.088
rhand -29.9164 -17.7527
rfingers 7.12502
rthumb -3.2367 -47.7078
lclavicle -3.65764e-014 1.43125e-014
lhumerus 22.1758 8.77777 66.9519
lradius 54.873
lwrist -26.439
lhand -3.30646 -8.15248
lfingers 7.12502
lthumb 22.4198 20.5664
rfemur -42.9831 3.56802 32.8656
rtibia 61.6354
rfoot -32.3368 -14.5914
rtoes 9.9759
lfemur -6.03779 3.3712 -8.01297
ltibia 32.5702
lfoot -167.079 177.485
ltoes -1.54539
1800
root 12.4357 20.8039 50.8546 -174.925 18.6789 -173.542
lowerback 22.0755 -3.58508 2.16368
upperback 3.07428 -3.73778 -0.208065
thorax -9.10748 -1.65283 -0.393131
lowerneck -9.56729 -3.07186 -17.6751
upperneck -25.0606 3.57083 19.1817
head -6.31721 3.63432 9.49101
rclavicle 5.1684e-014 1.59028e-015
rhumerus 63.9935 7.18576 -54.4819
rradius 85.1308
rwrist -367.855
rhand -30.2963 -18.0516
rfingers 7.12502
rthumb -3.60361 -48.0009
lclavicle 5.1684e-014 1.59028e-015
lhumerus 21.6767 8.33521 66.8182
lradius 54.5418
lwrist -25.8034
lhand -4.47917 -8.13906
lfingers 7.12502
lthumb 21.2938 20.7111
rfemur -42.0016 3.10142 33.3367
rtibia 59.5854
rfoot -31.9208 -14.9426
rtoes 9.48284
lfemur -8.13848 4.45227 -7.46152
ltibia 36.1479
lfoot -168.785 180.545
ltoes -7.33517
1801
root 12.5219 20.9648 50.8204 -175.078 17.957 -173.263
lowerback 22.309 -3.80464 2.51535
upperback 3.12533 -3.9179 -0.197148
thorax -9.20466 -1.74207 -0.51742
lowerneck -10.4216 -3.19605 -18.0436
upperneck -24.1326 3.5322 19.893
head -5.85816 3.63325 9.7984
rclavicle -7.91163e-014 9.54166e-015
rhumerus 65.5959 6.29939 -54.2959
rradius 84.3419
rwrist -367.708
rhand -30.4405 -18.377
rfingers 7.12502
rthumb -3.74285 -48.3238
lclavicle -7.91163e-014 9.54166e-015
lhumerus 21.4972 8.48294 67.0011
lradius 53.9871
lwrist -27.0278
lhand -4.35039 -8.93264
lfingers 7.12502
lthumb 21.4175 19.9036
rfemur -40.2692 2.84238 33.7409
rtibia 57.3699
rfoot -31.7471 -14.8014
rtoes 10.6047
lfemur -9.56706 5.86929 -6.98939
ltibia 39.6446
lfoot -170.538 182.51
ltoes -9.74595
1802
root 12.6053 21.1082 50.7831 -175.324 17.315 -173.069
lowerback 22.5851 -3.98356 2.73725
upperback 3.20127 -4.07124 -0.2109
thorax -9.28997 -1.81248 -0.601166
lowerneck -9.96424 -3.25886 -17.9636
upperneck -24.6965 3.52221 19.9778
head -6.10851 3.63031 9.83827
rclavicle -1.35174e-014 -2.06736e-014
rhumerus 67.1767 5.36769 -54.2137
rradius 83.482
rwrist -367.545
rhand -30.2673 -18.5661
rfingers 7.12502
rthumb -3.57563 -48.5159
lclavicle -1.35174e-014 -2.06736e-014
lhumerus 21.6524 8.87604 67.488
lradius 53.1308
lwrist -28.4396
lhand -4.58678 -9.45094
lfingers 7.12502
lthumb 21.1904 19.4109
rfemur -38.4698 2.57632 34.055
rtibia 55.1266
rfoot -31.4811 -14.6108
rtoes 11.74
lfemur -10.9338 7.4681 -6.56349
ltibia 43.1157
lfoot -172.645 183.406
ltoes -10.121
1803
root 12.6703 21.2549 50.7337 -174.763 16.0215 -172.727
lowerback 21.6952 -4.44348 3.75308
upperback 3.12147 -4.50284 -0.245244
thorax -9.00275 -2.06693 -1.12433
lowerneck -9.41921 -3.27129 -17.7611
upperneck -25.0656 3.44384 19.886
head -6.30112 3.56114 9.77919
rclavicle -3.4191e-014 1.27222e-014
rhumerus 68.68 4.40446 -54.1786
rradius 82.4067
rwrist -367.324
rhand -30.4606 -18.6491
rfingers 7.12502
rthumb -3.76222 -48.5957
lclavicle -3.4191e-014 1.27222e-014
lhumerus 21.6747 8.68602 67.6075
lradius 52.3447
lwrist -28.6515
lhand -5.95449 -9.17408
lfingers 7.12502
lthumb 19.8761 19.8295
rfemur -37.5858 1.86969 34.4338
rtibia 52.8074
rfoot -30.9599 -14.4086
rtoes 13.4882
lfemur -13.4126 8.55168 -6.14748
ltibia 46.6645
lfoot -175.08 183.658
ltoes -8.44101
